<mxfile host="app.diagrams.net" modified="2023-06-04T22:59:20.778Z" agent="Mozilla/5.0 (Windows NT 10.0; Win64; x64) AppleWebKit/537.36 (KHTML, like Gecko) Chrome/113.0.0.0 Safari/537.36" etag="msH6FJB6cT0Zla70N2Lw" version="21.3.7" type="device">
  <diagram id="De45ii2Sp3PFvOTu69Ke" name="第 1 页">
    <mxGraphModel dx="911" dy="418" grid="1" gridSize="10" guides="1" tooltips="1" connect="1" arrows="1" fold="1" page="1" pageScale="1" pageWidth="827" pageHeight="1169" math="0" shadow="0">
      <root>
        <mxCell id="0" />
        <mxCell id="1" parent="0" />
        <mxCell id="NGuuJl21pHQzUnoow5Hf-10" style="edgeStyle=orthogonalEdgeStyle;rounded=0;orthogonalLoop=1;jettySize=auto;html=1;exitX=1;exitY=0.5;exitDx=0;exitDy=0;fontSize=18;entryX=0;entryY=0.5;entryDx=0;entryDy=0;" parent="1" source="NGuuJl21pHQzUnoow5Hf-1" target="NGuuJl21pHQzUnoow5Hf-4" edge="1">
          <mxGeometry relative="1" as="geometry">
            <mxPoint x="220" y="210" as="targetPoint" />
            <Array as="points">
              <mxPoint x="180" y="270" />
              <mxPoint x="220" y="270" />
              <mxPoint x="220" y="220" />
            </Array>
          </mxGeometry>
        </mxCell>
        <mxCell id="NGuuJl21pHQzUnoow5Hf-1" value="&lt;font style=&quot;font-size: 18px;&quot;&gt;System Dynamic&lt;/font&gt;" style="rounded=0;whiteSpace=wrap;html=1;" parent="1" vertex="1">
          <mxGeometry x="60" y="250" width="120" height="60" as="geometry" />
        </mxCell>
        <mxCell id="NGuuJl21pHQzUnoow5Hf-8" style="edgeStyle=orthogonalEdgeStyle;rounded=0;orthogonalLoop=1;jettySize=auto;html=1;exitX=1;exitY=0.5;exitDx=0;exitDy=0;entryX=0;entryY=0.5;entryDx=0;entryDy=0;fontSize=18;" parent="1" source="NGuuJl21pHQzUnoow5Hf-2" target="NGuuJl21pHQzUnoow5Hf-4" edge="1">
          <mxGeometry relative="1" as="geometry" />
        </mxCell>
        <mxCell id="NGuuJl21pHQzUnoow5Hf-2" value="Odometry" style="rounded=0;whiteSpace=wrap;html=1;fontSize=18;" parent="1" vertex="1">
          <mxGeometry x="60" y="140" width="120" height="60" as="geometry" />
        </mxCell>
        <mxCell id="NGuuJl21pHQzUnoow5Hf-13" style="edgeStyle=orthogonalEdgeStyle;rounded=0;orthogonalLoop=1;jettySize=auto;html=1;exitX=1;exitY=0.5;exitDx=0;exitDy=0;fontSize=18;entryX=0;entryY=0.5;entryDx=0;entryDy=0;" parent="1" source="NGuuJl21pHQzUnoow5Hf-3" target="NGuuJl21pHQzUnoow5Hf-5" edge="1">
          <mxGeometry relative="1" as="geometry">
            <mxPoint x="250" y="300" as="targetPoint" />
          </mxGeometry>
        </mxCell>
        <mxCell id="NGuuJl21pHQzUnoow5Hf-3" value="Camera" style="rounded=0;whiteSpace=wrap;html=1;fontSize=18;" parent="1" vertex="1">
          <mxGeometry x="260" y="290" width="120" height="60" as="geometry" />
        </mxCell>
        <mxCell id="ACo2i2RifiFehLKGWSzm-1" style="edgeStyle=orthogonalEdgeStyle;rounded=0;orthogonalLoop=1;jettySize=auto;html=1;exitX=1;exitY=0.5;exitDx=0;exitDy=0;entryX=0;entryY=0.5;entryDx=0;entryDy=0;fontSize=18;" parent="1" source="NGuuJl21pHQzUnoow5Hf-4" target="NGuuJl21pHQzUnoow5Hf-5" edge="1">
          <mxGeometry relative="1" as="geometry" />
        </mxCell>
        <mxCell id="NGuuJl21pHQzUnoow5Hf-4" value="sr-EKF" style="rounded=0;whiteSpace=wrap;html=1;fontSize=18;" parent="1" vertex="1">
          <mxGeometry x="260" y="190" width="120" height="60" as="geometry" />
        </mxCell>
        <mxCell id="ACo2i2RifiFehLKGWSzm-2" style="edgeStyle=orthogonalEdgeStyle;rounded=0;orthogonalLoop=1;jettySize=auto;html=1;exitX=1;exitY=0.5;exitDx=0;exitDy=0;entryX=0;entryY=0.5;entryDx=0;entryDy=0;fontSize=18;" parent="1" source="NGuuJl21pHQzUnoow5Hf-5" target="NGuuJl21pHQzUnoow5Hf-20" edge="1">
          <mxGeometry relative="1" as="geometry" />
        </mxCell>
        <mxCell id="NGuuJl21pHQzUnoow5Hf-5" value="mr-EKF" style="rounded=0;whiteSpace=wrap;html=1;fontSize=18;" parent="1" vertex="1">
          <mxGeometry x="440" y="240" width="216" height="60" as="geometry" />
        </mxCell>
        <mxCell id="NGuuJl21pHQzUnoow5Hf-14" value="T&lt;sub&gt;&lt;font style=&quot;font-size: 12px;&quot;&gt;1&lt;/font&gt;&lt;/sub&gt;" style="text;html=1;align=center;verticalAlign=middle;resizable=0;points=[];autosize=1;strokeColor=none;fillColor=none;fontSize=18;" parent="1" vertex="1">
          <mxGeometry x="200" y="130" width="40" height="40" as="geometry" />
        </mxCell>
        <mxCell id="NGuuJl21pHQzUnoow5Hf-15" value="T&lt;sub&gt;&lt;font style=&quot;font-size: 12px;&quot;&gt;2&lt;/font&gt;&lt;/sub&gt;" style="text;html=1;align=center;verticalAlign=middle;resizable=0;points=[];autosize=1;strokeColor=none;fillColor=none;fontSize=18;" parent="1" vertex="1">
          <mxGeometry x="400" y="320" width="40" height="40" as="geometry" />
        </mxCell>
        <mxCell id="NGuuJl21pHQzUnoow5Hf-20" value="&lt;font style=&quot;font-size: 18px;&quot;&gt;State Estimation&lt;/font&gt;" style="rounded=0;whiteSpace=wrap;html=1;fontSize=12;" parent="1" vertex="1">
          <mxGeometry x="677" y="240" width="120" height="60" as="geometry" />
        </mxCell>
      </root>
    </mxGraphModel>
  </diagram>
</mxfile>
